# Blender v2.92.0 OBJ File: ''
# www.blender.org
mtllib Barrier.mtl
o Barrier
v 0.000000 1.000000 0.000000
v 0.395248 0.918574 0.000000
v 0.567710 0.755723 -0.326477
v 0.344925 0.674298 -0.652955
v -0.050324 0.755723 -0.652955
v -0.222786 0.918574 -0.326477
v -0.589668 0.755723 -0.284910
v -0.733765 0.674298 0.083135
v -0.510979 0.755723 0.409613
v -0.144097 0.918574 0.368045
v 0.162095 0.786825 0.595509
v 0.495428 0.786825 0.368045
v 0.768071 0.492224 0.409613
v 0.940533 0.329373 0.083135
v 0.840353 0.461122 -0.284910
v -0.310619 0.492224 -0.813161
v -0.643952 0.492224 -0.585696
v -0.571670 0.461122 0.678644
v -0.265479 0.329373 0.906110
v 0.101404 0.492224 0.864542
v 0.786069 0.197624 -0.585696
v 0.479878 0.329373 -0.813161
v 0.374046 0.197624 0.906110
v 0.707379 0.197624 0.678644
v -0.842332 0.147301 -0.518439
v -0.986425 0.065875 -0.150394
v -0.932145 0.329373 0.150394
v 0.219582 0.065875 -0.973367
v -0.175666 0.147301 -0.973367
v -0.831965 0.197624 0.518439
v 0.986425 -0.065875 0.150394
v 0.932145 -0.329373 -0.150394
v 0.831965 -0.197624 -0.518439
v 0.842332 -0.147301 0.518439
v -0.374046 -0.197624 -0.906110
v -0.707379 -0.197624 -0.678644
v -0.219582 -0.065875 0.973367
v 0.175666 -0.147301 0.973367
v -0.786069 -0.197624 0.585696
v -0.479878 -0.329373 0.813161
v 0.571670 -0.461122 -0.678644
v 0.265479 -0.329373 -0.906110
v 0.310619 -0.492224 0.813161
v 0.643952 -0.492224 0.585696
v -0.768071 -0.492224 -0.409613
v -0.940533 -0.329373 -0.083135
v -0.840353 -0.461122 0.284910
v -0.101404 -0.492224 -0.864542
v 0.733765 -0.674298 -0.083135
v 0.510979 -0.755723 -0.409613
v 0.589668 -0.755723 0.284910
v -0.162095 -0.786825 -0.595509
v -0.495428 -0.786825 -0.368045
v -0.344925 -0.674298 0.652955
v 0.050324 -0.755723 0.652955
v -0.567710 -0.755723 0.326477
v 0.144097 -0.918574 -0.368045
v 0.222786 -0.918574 0.326477
v -0.395248 -0.918574 -0.000000
v 0.000000 -1.000000 -0.000000
vt 0.483871 0.299280
vt 0.516129 0.355153
vt 0.483871 0.411025
vt 0.483871 0.522771
vt 0.387097 0.466898
vt 0.322581 0.466898
vt 0.354839 0.367618
vt 0.407033 0.405539
vt 0.290323 0.299280
vt 0.322581 0.355153
vt 0.225806 0.411025
vt 0.600582 0.405539
vt 0.580645 0.466898
vt 0.516129 0.466898
vt 0.387097 0.578643
vt 0.290323 0.522771
vt 0.205870 0.237922
vt 0.310259 0.237922
vt 0.290323 0.299280
vt 0.193548 0.466898
vt 0.580645 0.578643
vt 0.516129 0.578643
vt 0.709677 0.355153
vt 0.677419 0.411025
vt 0.612903 0.411025
vt 0.503808 0.584129
vt 0.451613 0.622051
vt 0.399418 0.584129
vt 0.032258 0.299280
vt 0.096774 0.299280
vt 0.096774 0.411025
vt 0.109096 0.405539
vt 0.161290 0.367618
vt 0.213485 0.405539
vt 0.709677 0.466898
vt 0.677419 0.522771
vt 0.612903 0.522771
vt 0.258065 0.622051
vt 0.225806 0.522771
vt 0.290323 0.634516
vt 0.322581 0.578643
vt 0.806452 0.299280
vt 0.870968 0.299280
vt 0.870968 0.411025
vt 0.129032 0.578643
vt 0.096774 0.522771
vt 0.129032 0.466898
vt 0.697356 0.584129
vt 0.645161 0.622051
vt 0.592967 0.584129
vt 0.612903 0.634516
vt 0.516129 0.690388
vt 0.741935 0.367618
vt 0.774194 0.466898
vt 0.967742 0.466898
vt 0.903226 0.466898
vt 0.883289 0.405539
vt 0.032258 0.522771
vt 0.000000 0.466898
vt 0.032258 0.411025
vt 0.806452 0.522771
vt 0.774194 0.578643
vt 0.709677 0.578643
vt 0.096774 0.634516
vt 0.225806 0.634516
vt 0.109096 0.751747
vt 0.129032 0.690388
vt 0.193548 0.690388
vt 0.870968 0.522771
vt 0.064516 0.622051
vt 0.012321 0.584129
vt 0.709677 0.690388
vt 0.677419 0.634516
vt 0.967742 0.578643
vt 0.890904 0.584129
vt 0.838710 0.622051
vt 0.870968 0.634516
vt 0.903226 0.578643
vt 0.419355 0.411025
vt 0.387097 0.355153
vt 0.419355 0.299280
vt 0.419355 0.522771
vt 0.302644 0.405539
vt 0.290323 0.411025
vt 0.193548 0.355153
vt 0.225806 0.299280
vt 0.496192 0.405539
vt 0.548387 0.367618
vt 0.225806 0.299280
vt 0.258065 0.200000
vt 0.580645 0.355153
vt 0.612903 0.299280
vt 0.677419 0.299280
vt 0.129032 0.355153
vt 0.000000 0.355153
vt 0.310259 0.584129
vt 0.205870 0.584129
vt 0.419355 0.634516
vt 0.387097 0.690388
vt 0.322581 0.690388
vt 0.903226 0.355153
vt 0.806452 0.411025
vt 0.774194 0.355153
vt 0.193548 0.578643
vt 0.580645 0.690388
vt 0.483871 0.634516
vt 0.689741 0.405539
vt 0.794130 0.405539
vt 0.935484 0.367618
vt 0.987679 0.405539
vt 0.213485 0.751747
vt 0.161290 0.789669
vt 0.116711 0.584129
vt 0.806452 0.634516
vt 0.774194 0.690388
vt 1.000000 0.522771
vt 0.786515 0.584129
vt 1.000000 0.634516
vt 0.967742 0.690388
vt 0.903226 0.690388
vn 0.2754 0.6979 -0.6611
vn 0.0228 0.7500 -0.6611
vn -0.1706 0.9260 -0.3369
vn -0.7333 0.6798 0.0114
vn -0.2023 0.8932 0.4016
vn 0.1827 0.7411 0.6461
vn 0.3634 0.9314 -0.0212
vn 0.0168 0.9982 -0.0569
vn 0.5984 0.7409 -0.3049
vn 0.7253 0.5232 0.4476
vn -0.2893 0.4339 -0.8533
vn -0.6884 0.4348 -0.5805
vn -0.5898 0.7460 -0.3092
vn -0.5133 0.4645 0.7216
vn 0.0894 0.5530 0.8284
vn 0.8392 0.4915 -0.2327
vn 0.4373 0.2843 -0.8532
vn 0.6544 0.2001 0.7292
vn -0.9886 0.1164 -0.0956
vn -0.9539 0.2842 0.0961
vn 0.2715 0.1165 -0.9554
vn -0.2029 0.2131 -0.9557
vn -0.8338 0.1281 0.5370
vn 0.7626 0.1813 -0.6210
vn 0.9941 -0.0673 0.0855
vn 0.9270 0.3618 0.0990
vn -0.4410 -0.2001 -0.8749
vn -0.6540 -0.2001 -0.7296
vn -0.8589 0.1476 -0.4904
vn -0.2448 -0.1314 0.9606
vn 0.3676 0.2367 0.8994
vn -0.2837 0.2959 0.9121
vn 0.5597 -0.4114 -0.7194
vn 0.2893 -0.4339 0.8533
vn 0.6879 -0.4355 0.5806
vn 0.8388 -0.1217 0.5307
vn -0.7264 -0.5539 -0.4069
vn -0.9336 -0.3579 -0.0158
vn -0.7926 -0.2191 0.5690
vn -0.1140 -0.5534 -0.8251
vn 0.7160 -0.6979 -0.0154
vn 0.4504 -0.7946 -0.4071
vn 0.6243 -0.7499 0.2191
vn 0.9320 -0.3151 -0.1793
vn -0.1527 -0.7412 -0.6537
vn -0.5511 -0.7428 -0.3801
vn -0.0228 -0.7499 0.6611
vn -0.5424 -0.7958 0.2692
vn -0.3407 -0.6472 0.6819
vn -0.4804 -0.3534 0.8027
vn 0.2144 -0.9092 -0.3570
vn 0.1836 -0.9455 0.2691
vn -0.8257 -0.4951 0.2702
vn 0.0408 -0.9990 -0.0186
vn -0.3967 -0.9176 -0.0259
vn -0.4504 0.7946 0.4071
vn 0.5511 0.7428 0.3801
vn 0.8583 -0.1665 -0.4855
vn 0.2029 -0.2131 0.9557
vn 0.3245 -0.3574 -0.8758
usemtl initialShadingGroup
s 1
f 4/1/1 5/2/2 6/3/3
f 6/3/3 8/4/4 10/5/5
f 11/6/6 2/7/7 1/8/8
f 3/9/9 2/10/7 13/11/10
f 16/12/11 17/13/12 7/14/13
f 18/15/14 20/16/15 10/5/5
f 15/17/16 22/18/17 4/19/1
f 24/20/18 13/11/10 11/6/6
f 26/21/19 27/22/20 8/4/4
f 28/23/21 29/24/22 16/25/11
f 27/26/20 30/27/23 18/28/14
f 21/29/24 15/30/16 31/31/25
f 31/32/25 14/33/26 13/34/10
f 35/35/27 36/36/28 25/37/29
f 37/38/30 23/39/31 20/16/15
f 37/40/30 19/41/32 18/15/14
f 22/42/17 21/43/24 41/44/33
f 43/45/34 44/46/35 34/47/36
f 45/48/37 46/49/38 26/50/19
f 46/51/38 39/52/39 27/22/20
f 28/53/21 48/54/40 35/35/27
f 49/55/41 50/56/42 41/57/33
f 51/58/43 49/59/41 32/60/44
f 52/61/45 53/62/46 45/63/37
f 55/64/47 43/45/34 37/65/30
f 56/66/48 54/67/49 40/68/50
f 57/69/51 48/54/40 41/44/33
f 55/70/47 58/71/52 51/58/43
f 47/72/53 46/73/38 45/63/37
f 49/55/41 58/74/52 57/69/51
f 52/61/45 60/75/54 59/76/55
f 59/77/55 60/78/54 58/74/52
f 6/3/3 1/79/8 2/80/7
f 2/80/7 3/81/9 6/3/3
f 3/81/9 4/1/1 6/3/3
f 10/5/5 1/79/8 6/3/3
f 6/3/3 7/14/13 8/4/4
f 8/4/4 9/82/56 10/5/5
f 1/8/8 10/5/5 11/6/6
f 11/6/6 12/83/57 2/7/7
f 2/10/7 12/84/57 13/11/10
f 13/11/10 14/85/26 15/86/16
f 15/86/16 3/9/9 13/11/10
f 6/87/3 5/88/2 7/14/13
f 5/88/2 16/12/11 7/14/13
f 10/5/5 9/82/56 18/15/14
f 18/15/14 19/41/32 20/16/15
f 20/16/15 11/6/6 10/5/5
f 4/19/1 3/89/9 15/17/16
f 15/17/16 21/90/24 22/18/17
f 13/11/10 12/84/57 11/6/6
f 11/6/6 20/16/15 23/39/31
f 23/39/31 24/20/18 11/6/6
f 8/4/4 7/14/13 26/21/19
f 7/14/13 17/13/12 26/21/19
f 17/13/12 25/37/29 26/21/19
f 16/25/11 5/91/2 28/23/21
f 5/91/2 4/92/1 28/23/21
f 4/92/1 22/93/17 28/23/21
f 18/28/14 9/82/56 8/4/4
f 8/4/4 27/26/20 18/28/14
f 15/30/16 14/94/26 31/31/25
f 31/31/25 32/60/44 33/95/58
f 33/95/58 21/29/24 31/31/25
f 13/34/10 24/20/18 34/47/36
f 34/47/36 31/32/25 13/34/10
f 25/37/29 17/13/12 16/25/11
f 16/25/11 29/24/22 25/37/29
f 29/24/22 35/35/27 25/37/29
f 20/16/15 19/96/32 37/38/30
f 37/38/30 38/97/59 23/39/31
f 18/15/14 30/98/23 39/99/39
f 39/99/39 40/100/50 18/15/14
f 40/100/50 37/40/30 18/15/14
f 21/43/24 33/101/58 41/44/33
f 41/44/33 42/102/60 28/103/21
f 28/103/21 22/42/17 41/44/33
f 34/47/36 24/20/18 23/39/31
f 23/39/31 38/104/59 34/47/36
f 38/104/59 43/45/34 34/47/36
f 26/50/19 25/37/29 36/36/28
f 36/36/28 45/48/37 26/50/19
f 27/22/20 26/21/19 46/51/38
f 46/51/38 47/105/53 39/52/39
f 39/52/39 30/106/23 27/22/20
f 35/35/27 29/107/22 28/53/21
f 28/53/21 42/108/60 48/54/40
f 33/109/58 32/110/44 41/57/33
f 32/110/44 49/55/41 41/57/33
f 32/60/44 31/31/25 51/58/43
f 31/31/25 34/47/36 51/58/43
f 34/47/36 44/46/35 51/58/43
f 45/63/37 36/36/28 52/61/45
f 36/36/28 35/35/27 52/61/45
f 35/35/27 48/54/40 52/61/45
f 43/45/34 38/104/59 37/65/30
f 37/65/30 40/68/50 54/67/49
f 54/67/49 55/64/47 37/65/30
f 39/111/39 47/112/53 40/68/50
f 47/112/53 56/66/48 40/68/50
f 41/44/33 50/56/42 57/69/51
f 57/69/51 52/61/45 48/54/40
f 48/54/40 42/102/60 41/44/33
f 51/58/43 44/46/35 43/113/34
f 43/113/34 55/70/47 51/58/43
f 45/63/37 53/62/46 59/114/55
f 59/114/55 56/115/48 45/63/37
f 56/115/48 47/72/53 45/63/37
f 57/69/51 50/56/42 49/55/41
f 49/55/41 51/116/43 58/74/52
f 58/74/52 60/78/54 57/69/51
f 59/76/55 53/117/46 52/61/45
f 52/61/45 57/69/51 60/75/54
f 58/74/52 55/118/47 54/119/49
f 54/119/49 56/120/48 58/74/52
f 56/120/48 59/77/55 58/74/52
