# This file uses centimeters as units for non-parametric coordinates.

mtllib GamePlay_DeadEffect.mtl
g default
v 0.309010 -0.145100 -0.425316
v 0.425316 -0.145100 -0.309010
v 0.425316 0.145100 -0.309010
v 0.309010 0.145100 -0.425316
v 0.442467 -0.145100 -0.321471
v 0.321471 -0.145100 -0.442467
v 0.321471 0.145100 -0.442467
v 0.442467 0.145100 -0.321471
v -0.162456 -0.145100 0.499989
v -0.169007 -0.145100 0.520151
v -0.321471 -0.145100 0.442467
v -0.309010 -0.145100 0.425316
v 0.520152 -0.145100 -0.169007
v 0.499989 -0.145100 -0.162456
v -0.425316 0.145100 0.309010
v -0.442467 0.145100 0.321471
v -0.321471 0.145100 0.442467
v -0.309010 0.145100 0.425316
v -0.162456 0.145100 0.499989
v 0.499989 0.145100 -0.162456
v -0.169007 0.145100 0.520151
v 0.520152 0.145100 -0.169007
v -0.000000 -0.145100 0.525720
v -0.000000 -0.145100 0.546919
v 0.546919 -0.145100 0.000000
v 0.525720 -0.145100 0.000000
v -0.000000 0.145100 0.525720
v 0.525720 0.145100 0.000000
v -0.000000 0.145100 0.546919
v 0.546919 0.145100 0.000000
v 0.520151 -0.145100 0.169007
v 0.499989 -0.145100 0.162456
v 0.162456 -0.145100 0.499989
v 0.169007 -0.145100 0.520151
v 0.442467 -0.145100 0.321471
v 0.425316 -0.145100 0.309010
v 0.309010 -0.145100 0.425316
v 0.321471 -0.145100 0.442467
v 0.499989 0.145100 0.162456
v 0.162456 0.145100 0.499989
v 0.520151 0.145100 0.169007
v 0.169007 0.145100 0.520151
v 0.425316 0.145100 0.309010
v 0.309010 0.145100 0.425316
v 0.442467 0.145100 0.321471
v 0.321471 0.145100 0.442467
v -0.425316 -0.145100 0.309010
v -0.442467 -0.145100 0.321471
v -0.499989 0.145100 0.162456
v -0.520151 0.145100 0.169007
v 0.169007 0.145100 -0.520152
v 0.162456 0.145100 -0.499989
v -0.499989 -0.145100 0.162456
v 0.162456 -0.145100 -0.499989
v -0.520151 -0.145100 0.169007
v 0.169007 -0.145100 -0.520152
v -0.525720 0.145100 0.000000
v -0.546920 0.145100 0.000000
v 0.000000 0.145100 -0.546920
v 0.000000 0.145100 -0.525720
v -0.525720 -0.145100 0.000000
v 0.000000 -0.145100 -0.525720
v -0.546920 -0.145100 0.000000
v 0.000000 -0.145100 -0.546920
v -0.499989 0.145100 -0.162456
v -0.520151 0.145100 -0.169007
v -0.169007 0.145100 -0.520151
v -0.162456 0.145100 -0.499989
v -0.425316 0.145100 -0.309010
v -0.442467 0.145100 -0.321471
v -0.321471 0.145100 -0.442467
v -0.309010 0.145100 -0.425316
v -0.499989 -0.145100 -0.162456
v -0.162456 -0.145100 -0.499989
v -0.520151 -0.145100 -0.169007
v -0.169007 -0.145100 -0.520151
v -0.442467 -0.145100 -0.321471
v -0.321471 -0.145100 -0.442467
v -0.425316 -0.145100 -0.309010
v -0.309010 -0.145100 -0.425316
v -0.309010 0.145100 -0.425316
v -0.425316 0.145100 -0.309010
v -0.425316 -0.145100 -0.309010
v -0.309010 -0.145100 -0.425316
vt 0.083228 0.682723
vt 0.077953 0.682723
vt 0.077953 0.782567
vt 0.083228 0.782567
vt 0.442131 0.168156
vt 0.469208 0.168156
vt 0.469208 0.471902
vt 0.442131 0.471902
vt 0.105841 0.650698
vt 0.105051 0.653048
vt 0.086670 0.643995
vt 0.088173 0.641997
vt 0.176702 0.556427
vt 0.178770 0.554975
vt 0.188136 0.572741
vt 0.185705 0.573505
vt 0.074151 0.836846
vt 0.072083 0.835394
vt 0.086670 0.821295
vt 0.088173 0.823293
vt 0.176702 0.908863
vt 0.178770 0.910315
vt 0.164183 0.924415
vt 0.162681 0.922416
vt 0.141251 0.682723
vt 0.135976 0.682723
vt 0.135976 0.782567
vt 0.141251 0.782567
vt 0.072678 0.682723
vt 0.072678 0.782567
vt 0.739977 0.168156
vt 0.767054 0.168156
vt 0.767054 0.471902
vt 0.739977 0.471902
vt 0.415055 0.168156
vt 0.415055 0.471902
vt 0.125427 0.653697
vt 0.125427 0.656167
vt 0.191363 0.592435
vt 0.188807 0.592435
vt 0.105051 0.812242
vt 0.105841 0.814592
vt 0.185705 0.891786
vt 0.188136 0.892549
vt 0.146526 0.682723
vt 0.146526 0.782567
vt 0.178175 0.682723
vt 0.172900 0.682723
vt 0.172900 0.782567
vt 0.178175 0.782567
vt 0.794131 0.168156
vt 0.794131 0.471902
vt 0.929515 0.168156
vt 0.956592 0.168156
vt 0.956592 0.471902
vt 0.929515 0.471902
vt 0.188136 0.612130
vt 0.185705 0.611366
vt 0.145012 0.650698
vt 0.145802 0.653048
vt 0.178770 0.629896
vt 0.176702 0.628444
vt 0.162681 0.641997
vt 0.164183 0.643995
vt 0.125427 0.809123
vt 0.125427 0.811593
vt 0.188807 0.872855
vt 0.191363 0.872855
vt 0.167626 0.682723
vt 0.167626 0.782567
vt 0.151801 0.682723
vt 0.151801 0.782567
vt 0.902439 0.168156
vt 0.902439 0.471902
vt 0.821208 0.168156
vt 0.821208 0.471902
vt 0.162351 0.682723
vt 0.162351 0.782567
vt 0.157076 0.682723
vt 0.157076 0.782567
vt 0.875362 0.168156
vt 0.875362 0.471902
vt 0.848285 0.168156
vt 0.848285 0.471902
vt 0.185705 0.853924
vt 0.188136 0.853161
vt 0.145802 0.812242
vt 0.145012 0.814592
vt 0.176702 0.836846
vt 0.178770 0.835394
vt 0.164183 0.821295
vt 0.162681 0.823293
vt 0.130701 0.682723
vt 0.130701 0.782567
vt 0.712900 0.168156
vt 0.712900 0.471902
vt 0.065149 0.853924
vt 0.062718 0.853161
vt 0.145802 0.933467
vt 0.145012 0.931118
vt 0.162681 0.542874
vt 0.164183 0.540875
vt 0.072083 0.629896
vt 0.074151 0.628444
vt 0.125427 0.682723
vt 0.125427 0.782567
vt 0.088502 0.682723
vt 0.088502 0.782567
vt 0.685823 0.168156
vt 0.685823 0.471902
vt 0.496285 0.168156
vt 0.496285 0.471902
vt 0.062046 0.872855
vt 0.059491 0.872855
vt 0.125427 0.936586
vt 0.125427 0.934116
vt 0.062718 0.612130
vt 0.065149 0.611366
vt 0.145012 0.534172
vt 0.145802 0.531823
vt 0.120152 0.682723
vt 0.120152 0.782567
vt 0.093777 0.682723
vt 0.093777 0.782567
vt 0.658747 0.168156
vt 0.658747 0.471902
vt 0.523362 0.168156
vt 0.523362 0.471902
vt 0.065149 0.891786
vt 0.062718 0.892549
vt 0.105051 0.933467
vt 0.105841 0.931118
vt 0.074151 0.908863
vt 0.072083 0.910315
vt 0.086670 0.924415
vt 0.088173 0.922416
vt 0.059491 0.592435
vt 0.062046 0.592435
vt 0.125427 0.531174
vt 0.125427 0.528704
vt 0.114877 0.682723
vt 0.114877 0.782567
vt 0.099052 0.682723
vt 0.099052 0.782567
vt 0.631670 0.168156
vt 0.631670 0.471902
vt 0.550439 0.168156
vt 0.550439 0.471902
vt 0.604593 0.168156
vt 0.604593 0.471902
vt 0.577516 0.168156
vt 0.577516 0.471902
vt 0.109602 0.682723
vt 0.104327 0.682723
vt 0.104327 0.782567
vt 0.109602 0.782567
vt 0.062718 0.572741
vt 0.065149 0.573505
vt 0.105841 0.534172
vt 0.105051 0.531823
vt 0.072083 0.554975
vt 0.074151 0.556427
vt 0.088173 0.542874
vt 0.086670 0.540875
vt 0.074151 0.908863
vt 0.088173 0.922416
vt 0.109602 0.682723
vt 0.109602 0.782567
vt 0.104327 0.682723
vt 0.104327 0.782567
vt 0.088173 0.542874
vt 0.074151 0.556427
vn -0.587785 0.000000 0.809017
vn -0.809017 0.000000 0.587785
vn -0.587785 0.000000 0.809017
vn -0.809017 0.000000 0.587785
vn 0.809017 0.000000 -0.587785
vn 0.587785 0.000000 -0.809017
vn 0.809017 0.000000 -0.587785
vn 0.587785 0.000000 -0.809017
vn 0.000000 -1.000000 0.000000
vn 0.000000 -1.000000 0.000000
vn 0.000000 -1.000000 -0.000000
vn 0.000000 -1.000000 -0.000000
vn 0.000000 -1.000000 -0.000000
vn 0.000000 -1.000000 0.000000
vn 0.000000 -1.000000 0.000000
vn 0.000000 -1.000000 0.000000
vn 0.000000 1.000000 0.000001
vn 0.000000 1.000000 0.000000
vn 0.000000 1.000000 0.000000
vn 0.000000 1.000000 0.000000
vn 0.000000 1.000000 0.000000
vn 0.000000 1.000000 -0.000000
vn 0.000000 1.000000 -0.000000
vn 0.000000 1.000000 -0.000000
vn 0.309017 0.000000 -0.951057
vn 0.587785 0.000000 -0.809017
vn 0.309017 0.000000 -0.951057
vn 0.587785 0.000000 -0.809017
vn -0.951057 0.000000 0.309016
vn -0.951057 0.000000 0.309016
vn -0.587785 0.000000 0.809017
vn -0.309017 0.000000 0.951057
vn -0.587785 0.000000 0.809017
vn -0.309017 0.000000 0.951057
vn 0.951057 0.000000 -0.309016
vn 0.951057 0.000000 -0.309016
vn 0.000000 -1.000000 0.000000
vn 0.000000 -1.000000 0.000000
vn 0.000000 -1.000000 0.000000
vn 0.000000 -1.000000 0.000000
vn 0.000000 1.000000 -0.000000
vn 0.000000 1.000000 -0.000000
vn 0.000000 1.000000 0.000000
vn 0.000000 1.000000 0.000000
vn -0.000000 0.000000 -1.000000
vn -0.000000 0.000000 -1.000000
vn -1.000000 0.000000 -0.000001
vn -1.000000 0.000000 -0.000001
vn 0.000000 0.000000 1.000000
vn -0.000000 0.000000 1.000000
vn 1.000000 0.000000 0.000001
vn 1.000000 0.000000 0.000001
vn 0.000000 -1.000000 0.000000
vn 0.000000 -1.000000 0.000000
vn 0.000000 -1.000000 -0.000000
vn 0.000000 -1.000000 -0.000000
vn 0.000000 -1.000000 0.000001
vn 0.000000 -1.000000 0.000000
vn 0.000000 -1.000000 0.000000
vn 0.000000 -1.000000 0.000000
vn 0.000000 1.000000 -0.000000
vn 0.000000 1.000000 -0.000000
vn 0.000000 1.000000 0.000000
vn 0.000000 1.000000 0.000000
vn -0.951057 0.000000 -0.309017
vn -0.951057 0.000000 -0.309017
vn -0.309017 0.000000 -0.951057
vn -0.309017 0.000000 -0.951057
vn 0.951057 0.000000 0.309017
vn 0.951057 0.000000 0.309017
vn 0.309017 0.000000 0.951057
vn 0.309017 0.000000 0.951057
vn -0.809017 0.000000 -0.587785
vn -0.809017 0.000000 -0.587785
vn -0.587785 0.000000 -0.809017
vn -0.587785 0.000000 -0.809017
vn 0.809017 0.000000 0.587785
vn 0.809017 0.000000 0.587785
vn 0.587785 0.000000 0.809017
vn 0.587785 0.000000 0.809017
vn 0.000000 1.000000 0.000000
vn 0.000000 1.000000 0.000000
vn 0.000000 1.000000 0.000000
vn 0.000000 1.000000 0.000000
vn 0.000000 1.000000 0.000000
vn 0.000000 1.000000 0.000000
vn 0.000000 1.000000 0.000001
vn 0.000000 1.000000 0.000000
vn 0.809017 0.000000 -0.587785
vn 0.809017 0.000000 -0.587785
vn -0.809017 0.000000 0.587785
vn -0.809017 0.000000 0.587785
vn 0.000000 1.000000 0.000000
vn 0.000000 1.000000 0.000000
vn 0.000000 1.000000 0.000000
vn 0.000000 1.000000 0.000000
vn 0.000000 -1.000000 -0.000001
vn 0.000000 -1.000000 -0.000000
vn 0.000000 -1.000000 -0.000000
vn 0.000000 -1.000000 0.000000
vn 0.951057 0.000000 -0.309017
vn 0.951057 0.000000 -0.309017
vn -0.309017 0.000000 0.951057
vn -0.309017 0.000000 0.951057
vn -0.951057 0.000000 0.309017
vn -0.951057 0.000000 0.309017
vn 0.309017 0.000000 -0.951057
vn 0.309017 0.000000 -0.951057
vn 0.000000 1.000000 -0.000000
vn 0.000000 1.000000 -0.000000
vn 0.000000 1.000000 0.000000
vn 0.000000 1.000000 -0.000000
vn 0.000000 -1.000000 0.000000
vn 0.000000 -1.000000 0.000000
vn 0.000000 -1.000000 -0.000000
vn 0.000000 -1.000000 -0.000000
vn 1.000000 0.000000 0.000000
vn 1.000000 0.000000 -0.000000
vn 0.000000 0.000000 1.000000
vn 0.000000 0.000000 1.000000
vn -1.000000 0.000000 0.000000
vn -1.000000 0.000000 -0.000000
vn 0.000000 0.000000 -1.000000
vn -0.000000 0.000000 -1.000000
vn 0.000000 1.000000 0.000000
vn 0.000000 1.000000 0.000000
vn 0.000000 1.000000 -0.000000
vn 0.000000 1.000000 -0.000000
vn 0.000000 1.000000 -0.000001
vn 0.000000 1.000000 -0.000001
vn 0.000000 1.000000 0.000000
vn 0.000000 1.000000 -0.000000
vn 0.000000 -1.000000 0.000000
vn 0.000000 -1.000000 0.000000
vn 0.000000 -1.000000 0.000000
vn 0.000000 -1.000000 -0.000000
vn 0.951057 0.000000 0.309017
vn 0.951057 -0.000000 0.309017
vn 0.309017 -0.000000 0.951057
vn 0.309017 0.000000 0.951057
vn -0.951057 0.000000 -0.309017
vn -0.951057 0.000000 -0.309017
vn -0.309017 0.000000 -0.951057
vn -0.309017 0.000000 -0.951056
vn -0.809017 0.000000 -0.587785
vn -0.809017 0.000000 -0.587785
vn -0.587785 0.000000 -0.809017
vn -0.587786 0.000000 -0.809017
vn 0.707107 0.000000 0.707107
vn 0.587785 -0.000000 0.809017
vn 0.809017 -0.000000 0.587785
vn 0.707107 0.000000 0.707107
vn 0.000000 -1.000000 -0.000000
vn 0.000000 -1.000000 -0.000000
vn 0.000000 -1.000000 0.000000
vn 0.000000 -1.000000 0.000000
vn 0.000000 -1.000000 -0.000000
vn 0.000000 -1.000000 -0.000000
vn 0.000000 -1.000000 -0.000000
vn 0.000000 -1.000000 -0.000000
vn 0.000000 1.000000 -0.000000
vn 0.000000 0.869628 0.493708
vn 0.000000 -0.000000 -0.000000
vn 0.891007 0.000000 0.453990
vn 0.453991 -0.000000 0.891006
vn 0.000000 0.082025 -0.996630
vn 0.000000 -1.000000 -0.000000
vn 0.000000 -0.841307 0.540558
s 1
g polySurface1
usemtl initialShadingGroup
f 1/1/1 2/2/2 4/4/3
f 4/4/3 2/2/2 3/3/4
s 2
f 5/5/5 6/6/6 8/8/7
f 8/8/7 6/6/6 7/7/8
s 3
f 9/9/9 10/10/10 12/12/11
f 12/12/11 10/10/10 11/11/12
f 2/13/13 5/14/14 14/16/15
f 14/16/15 5/14/14 13/15/16
s 5
f 15/17/17 16/18/18 18/20/19
f 18/20/19 16/18/18 17/19/20
f 3/21/21 8/22/22 4/24/23
f 4/24/23 8/22/22 7/23/24
s 1
f 9/25/25 12/26/26 19/28/27
f 19/28/27 12/26/26 18/27/28
f 2/2/2 14/29/29 3/3/4
f 3/3/4 14/29/29 20/30/30
s 2
f 11/31/31 10/32/32 17/34/33
f 17/34/33 10/32/32 21/33/34
f 13/35/35 5/5/5 22/36/36
f 22/36/36 5/5/5 8/8/7
s 3
f 23/37/37 24/38/38 9/9/9
f 9/9/9 24/38/38 10/10/10
f 14/16/15 13/15/16 26/40/39
f 26/40/39 13/15/16 25/39/40
s 5
f 18/20/19 17/19/20 19/42/41
f 19/42/41 17/19/20 21/41/42
f 20/43/43 22/44/44 3/21/21
f 3/21/21 22/44/44 8/22/22
s 1
f 23/45/45 9/25/25 27/46/46
f 27/46/46 9/25/25 19/28/27
f 14/47/29 26/48/47 20/50/30
f 20/50/30 26/48/47 28/49/48
s 2
f 10/32/32 24/51/49 21/33/34
f 21/33/34 24/51/49 29/52/50
f 25/53/51 13/54/35 30/56/52
f 30/56/52 13/54/35 22/55/36
s 3
f 26/40/39 25/39/40 32/58/53
f 32/58/53 25/39/40 31/57/54
f 33/59/55 34/60/56 23/37/37
f 23/37/37 34/60/56 24/38/38
f 32/58/53 31/57/54 36/62/57
f 36/62/57 31/57/54 35/61/58
f 37/63/59 38/64/60 33/59/55
f 33/59/55 38/64/60 34/60/56
s 5
f 19/42/41 21/41/42 27/66/61
f 27/66/61 21/41/42 29/65/62
f 28/67/63 30/68/64 20/43/43
f 20/43/43 30/68/64 22/44/44
s 1
f 26/48/47 32/69/65 28/49/48
f 28/49/48 32/69/65 39/70/66
f 33/71/67 23/45/45 40/72/68
f 40/72/68 23/45/45 27/46/46
s 3
f 36/62/57 35/61/58 37/63/59
f 37/63/59 35/61/58 38/64/60
s 2
f 31/73/69 25/53/51 41/74/70
f 41/74/70 25/53/51 30/56/52
f 24/51/49 34/75/71 29/52/50
f 29/52/50 34/75/71 42/76/72
s 1
f 32/69/65 36/77/73 39/70/66
f 39/70/66 36/77/73 43/78/74
f 37/79/75 33/71/67 44/80/76
f 44/80/76 33/71/67 40/72/68
s 2
f 35/81/77 31/73/69 45/82/78
f 45/82/78 31/73/69 41/74/70
f 34/75/71 38/83/79 42/76/72
f 42/76/72 38/83/79 46/84/80
s 1
f 36/77/73 37/79/75 43/78/74
f 43/78/74 37/79/75 44/80/76
s 5
f 39/85/81 41/86/82 28/67/63
f 28/67/63 41/86/82 30/68/64
f 27/66/61 29/65/62 40/88/83
f 40/88/83 29/65/62 42/87/84
s 2
f 38/83/79 35/81/77 46/84/80
f 46/84/80 35/81/77 45/82/78
s 5
f 43/89/85 45/90/86 39/85/81
f 39/85/81 45/90/86 41/86/82
f 40/88/83 42/87/84 44/92/87
f 44/92/87 42/87/84 46/91/88
f 44/92/87 46/91/88 43/89/85
f 43/89/85 46/91/88 45/90/86
s 1
f 12/26/26 47/93/89 18/27/28
f 18/27/28 47/93/89 15/94/90
s 2
f 48/95/91 11/31/31 16/96/92
f 16/96/92 11/31/31 17/34/33
s 5
f 49/97/93 50/98/94 15/17/17
f 15/17/17 50/98/94 16/18/18
f 4/24/23 7/23/24 52/100/95
f 52/100/95 7/23/24 51/99/96
s 3
f 1/101/97 6/102/98 2/13/13
f 2/13/13 6/102/98 5/14/14
f 12/12/11 11/11/12 47/104/99
f 47/104/99 11/11/12 48/103/100
s 1
f 47/93/89 53/105/101 15/94/90
f 15/94/90 53/105/101 49/106/102
f 54/107/103 1/1/1 52/108/104
f 52/108/104 1/1/1 4/4/3
s 2
f 55/109/105 48/95/91 50/110/106
f 50/110/106 48/95/91 16/96/92
f 6/6/6 56/111/107 7/7/8
f 7/7/8 56/111/107 51/112/108
s 5
f 57/113/109 58/114/110 49/97/93
f 49/97/93 58/114/110 50/98/94
f 52/100/95 51/99/96 60/116/111
f 60/116/111 51/99/96 59/115/112
s 3
f 47/104/99 48/103/100 53/118/113
f 53/118/113 48/103/100 55/117/114
f 54/119/115 56/120/116 1/101/97
f 1/101/97 56/120/116 6/102/98
s 1
f 53/105/101 61/121/117 49/106/102
f 49/106/102 61/121/117 57/122/118
f 62/123/119 54/107/103 60/124/120
f 60/124/120 54/107/103 52/108/104
s 2
f 63/125/121 55/109/105 58/126/122
f 58/126/122 55/109/105 50/110/106
f 56/111/107 64/127/123 51/112/108
f 51/112/108 64/127/123 59/128/124
s 5
f 65/129/125 66/130/126 57/113/109
f 57/113/109 66/130/126 58/114/110
f 60/116/111 59/115/112 68/132/127
f 68/132/127 59/115/112 67/131/128
f 69/133/129 70/134/130 65/129/125
f 65/129/125 70/134/130 66/130/126
f 68/132/127 67/131/128 72/136/131
f 72/136/131 67/131/128 71/135/132
s 3
f 53/118/113 55/117/114 61/138/133
f 61/138/133 55/117/114 63/137/134
f 62/139/135 64/140/136 54/119/115
f 54/119/115 64/140/136 56/120/116
s 1
f 61/121/117 73/141/137 57/122/118
f 57/122/118 73/141/137 65/142/138
f 74/143/139 62/123/119 68/144/140
f 68/144/140 62/123/119 60/124/120
s 2
f 75/145/141 63/125/121 66/146/142
f 66/146/142 63/125/121 58/126/122
f 64/127/123 76/147/143 59/128/124
f 59/128/124 76/147/143 67/148/144
f 77/149/145 75/145/141 70/150/146
f 70/150/146 75/145/141 66/146/142
f 76/147/143 78/151/147 67/148/144
f 67/148/144 78/151/147 71/152/148
s 1
f 79/153/149 80/154/150 82/156/151
f 82/156/151 80/154/150 81/155/152
s 3
f 61/138/133 63/137/134 73/158/153
f 73/158/153 63/137/134 75/157/154
f 74/159/155 76/160/156 62/139/135
f 62/139/135 76/160/156 64/140/136
s 2
f 78/151/147 77/149/145 71/152/148
f 71/152/148 77/149/145 70/150/146
s 3
f 73/158/153 75/157/154 83/162/157
f 83/162/157 75/157/154 77/161/158
f 84/163/159 78/164/160 74/159/155
f 74/159/155 78/164/160 76/160/156
s 5
f 72/136/131 71/135/132 81/166/161
f 82/165/162 81/166/161 69/133/129
f 71/135/132 70/134/130 81/166/161
f 70/134/130 69/133/129 81/166/161
s 1
f 69/168/163 65/142/138 82/156/151
f 79/153/149 82/156/151 83/167/164
f 73/141/137 83/167/164 65/142/138
f 83/167/164 82/156/151 65/142/138
f 81/155/152 80/154/150 72/170/165
f 84/169/166 74/143/139 80/154/150
f 80/154/150 74/143/139 72/170/165
f 74/143/139 68/144/140 72/170/165
s 3
f 83/162/157 77/161/158 79/172/167
f 80/171/168 79/172/167 84/163/159
f 77/161/158 78/164/160 79/172/167
f 78/164/160 84/163/159 79/172/167
