# Blender v2.92.0 OBJ File: ''
# www.blender.org
mtllib GamePlay_Edge.mtl
o GamePlay_Edge
v 0.446993 -0.462574 -0.791999
v 0.439795 -0.231305 -0.779423
v -0.446983 -0.462574 -0.792038
v -0.439795 -0.231305 -0.779423
v 0.462434 -0.462574 -0.783118
v 0.497864 -0.462574 -0.844458
v 0.482390 -0.462574 -0.853391
v 0.455103 -0.231305 -0.770585
v 0.894913 -0.232027 -0.008810
v 0.909388 -0.462574 -0.008893
v 0.439795 0.231306 -0.779423
v 0.455087 0.232027 -0.770613
v 0.489844 -0.232416 -0.866025
v -0.489924 -0.234247 -0.866026
v -0.482390 -0.462574 -0.853391
v 0.505038 -0.234247 -0.857300
v 0.505078 0.232416 -0.857230
v 0.489844 0.232416 -0.866025
v 0.980104 -0.462574 -0.009002
v 0.994922 -0.232416 -0.008796
v 0.980254 -0.462574 0.008934
v 0.994922 -0.232416 0.008796
v 0.497864 -0.462574 0.844458
v 0.505078 -0.232416 0.857230
v 0.909388 -0.462574 0.008893
v 0.994922 0.232416 0.008796
v 0.994962 0.234248 -0.008726
v 0.894897 -0.231306 0.008838
v 0.455103 -0.231306 0.770585
v 0.462396 -0.462574 0.783107
v 0.894897 0.231306 -0.008838
v 0.894897 0.231306 0.008838
v 0.909388 0.462574 0.008893
v 0.462396 0.462574 0.783107
v 0.455103 0.231305 0.770585
v 0.909417 0.462574 -0.008920
v 0.980254 0.462574 -0.008934
v 0.980254 0.462574 0.008934
v 0.462396 0.462574 -0.783106
v 0.446993 0.462574 -0.791999
v -0.439827 0.232027 -0.779423
v -0.446992 0.462574 -0.792000
v 0.497848 0.462574 -0.844294
v 0.482390 0.462574 -0.853391
v -0.482256 0.462574 -0.853295
v -0.489844 0.232416 -0.866026
v 0.505078 0.232416 0.857230
v 0.497864 0.462574 0.844458
v -0.455103 -0.231306 0.770585
v -0.462396 -0.462574 0.783106
v -0.894913 -0.232027 0.008810
v -0.909388 -0.462574 0.008893
v -0.439827 -0.232027 0.779423
v -0.439795 0.231305 0.779423
v -0.455103 0.231305 0.770585
v -0.446992 -0.462574 0.792000
v 0.446983 -0.462574 0.792038
v 0.439795 -0.231306 0.779423
v -0.482256 -0.462574 0.853295
v -0.497864 -0.462574 0.844458
v -0.462396 0.462574 0.783106
v -0.909417 0.462574 0.008920
v -0.894897 0.231306 0.008838
v -0.446983 0.462574 0.792038
v -0.482390 0.462574 0.853391
v -0.497864 0.462574 0.844458
v 0.439827 0.232027 0.779423
v 0.446992 0.462574 0.792000
v 0.482256 0.462574 0.853295
v 0.482390 -0.462574 0.853391
v 0.489925 -0.234248 0.866025
v 0.489844 0.232416 0.866025
v -0.489844 -0.232416 0.866025
v -0.505078 -0.232416 0.857230
v -0.980104 -0.462574 0.009001
v -0.994922 -0.232416 0.008795
v -0.505078 0.232416 0.857230
v -0.489925 0.234247 0.866025
v -0.994962 0.234248 0.008725
v -0.980254 0.462574 0.008933
v -0.909388 0.462574 -0.008893
v -0.894897 0.231306 -0.008838
v -0.462395 0.462574 -0.783107
v -0.455102 0.231306 -0.770585
v -0.980254 0.462574 -0.008934
v -0.894897 -0.231306 -0.008838
v -0.994922 0.232416 -0.008796
v -0.505078 0.232416 -0.857230
v -0.497863 0.462574 -0.844458
v -0.994922 -0.232416 -0.008796
v -0.909388 -0.462574 -0.008893
v -0.455102 -0.231305 -0.770585
v -0.462395 -0.462574 -0.783107
v -0.980254 -0.462574 -0.008934
v -0.497863 -0.462574 -0.844458
v -0.505078 -0.232416 -0.857230
vt 0.375140 0.312500
vt 0.375472 0.406479
vt 0.416527 0.312500
vt 0.416194 0.406476
vt 0.572255 0.033887
vt 0.569843 0.032500
vt 0.577791 0.024302
vt 0.575374 0.022908
vt 0.571109 0.035845
vt 0.639830 0.154873
vt 0.642092 0.154860
vt 0.625000 0.408065
vt 0.624528 0.406476
vt 0.625000 0.594994
vt 0.624529 0.594759
vt 0.576538 0.020934
vt 0.423449 0.020934
vt 0.424628 0.022908
vt 0.624580 0.405280
vt 0.625000 0.407452
vt 0.624577 0.594914
vt 0.625000 0.595387
vt 0.578912 0.022297
vt 0.653141 0.154844
vt 0.655456 0.154876
vt 0.653165 0.157646
vt 0.655456 0.157624
vt 0.577791 0.288197
vt 0.578918 0.290192
vt 0.642092 0.157640
vt 0.582910 0.406025
vt 0.583757 0.406025
vt 0.582910 0.594914
vt 0.583753 0.595659
vt 0.582861 0.406476
vt 0.583194 0.312500
vt 0.542139 0.406482
vt 0.541806 0.312500
vt 0.583806 0.406181
vt 0.583806 0.594460
vt 0.582861 0.594464
vt 0.583194 0.688440
vt 0.541806 0.688440
vt 0.542139 0.594469
vt 0.642097 0.845142
vt 0.642092 0.842360
vt 0.653166 0.845144
vt 0.653165 0.842354
vt 0.583473 0.688440
vt 0.624861 0.688440
vt 0.375472 0.594460
vt 0.375139 0.688440
vt 0.416196 0.594759
vt 0.416527 0.688440
vt 0.572249 0.966110
vt 0.577789 0.975671
vt 0.569845 0.967500
vt 0.575374 0.977092
vt 0.576538 0.979066
vt 0.424647 0.977077
vt 0.423462 0.979067
vt 0.624261 0.688440
vt 0.584067 0.688440
vt 0.655456 0.842376
vt 0.578919 0.709808
vt 0.577791 0.711803
vt 0.499528 0.406476
vt 0.499861 0.312500
vt 0.458804 0.406181
vt 0.458473 0.312500
vt 0.500471 0.406181
vt 0.500472 0.594460
vt 0.499527 0.594464
vt 0.500140 0.312500
vt 0.541527 0.312500
vt 0.541194 0.406476
vt 0.430157 0.280000
vt 0.424647 0.289577
vt 0.427751 0.278610
vt 0.422209 0.288197
vt 0.427751 0.721390
vt 0.428890 0.723346
vt 0.357904 0.842356
vt 0.360173 0.842368
vt 0.430160 0.719994
vt 0.424628 0.710408
vt 0.422209 0.711803
vt 0.500140 0.688440
vt 0.541196 0.594759
vt 0.541527 0.688440
vt 0.569843 0.720000
vt 0.575353 0.710423
vt 0.572249 0.721390
vt 0.569840 0.280006
vt 0.572249 0.278610
vt 0.575372 0.289592
vt 0.541247 0.405280
vt 0.542090 0.406025
vt 0.541243 0.594914
vt 0.542090 0.594914
vt 0.576551 0.291566
vt 0.423462 0.291566
vt 0.499266 0.312500
vt 0.499577 0.406025
vt 0.459073 0.312500
vt 0.458757 0.406025
vt 0.500423 0.406025
vt 0.499577 0.594914
vt 0.500420 0.595659
vt 0.421082 0.709808
vt 0.344537 0.842387
vt 0.346835 0.842354
vt 0.423449 0.708434
vt 0.576538 0.708434
vt 0.458194 0.688440
vt 0.457861 0.594464
vt 0.416806 0.688440
vt 0.417139 0.594472
vt 0.357908 0.845140
vt 0.346835 0.845146
vt 0.458806 0.594460
vt 0.457861 0.406476
vt 0.344543 0.845124
vt 0.421082 0.977692
vt 0.422209 0.975697
vt 0.458753 0.595659
vt 0.457910 0.594914
vt 0.457910 0.406025
vt 0.458194 0.312500
vt 0.417139 0.406479
vt 0.416806 0.312500
vt 0.357908 0.157640
vt 0.346859 0.157656
vt 0.357907 0.154862
vt 0.346834 0.154856
vt 0.344543 0.154876
vt 0.422209 0.024303
vt 0.421082 0.022308
vt 0.430157 0.967500
vt 0.427751 0.966110
vt 0.430160 0.032494
vt 0.427751 0.033890
vt 0.417090 0.594914
vt 0.416243 0.594914
vt 0.417090 0.406025
vt 0.416247 0.405280
vt 0.375423 0.406025
vt 0.375423 0.594914
vt 0.570313 0.034465
vt 0.577253 0.022443
vt 0.654679 0.156250
vt 0.640625 0.156250
vt 0.583333 0.688440
vt 0.625000 0.688440
vt 0.624911 0.688440
vt 0.583422 0.688440
vt 0.500000 0.312500
vt 0.500000 0.688440
vt 0.541667 0.688440
vt 0.541667 0.312500
vt 0.577253 0.290057
vt 0.422660 0.290206
vt 0.422747 0.709944
vt 0.577340 0.709794
vt 0.359375 0.843750
vt 0.345493 0.843750
vt 0.458333 0.312500
vt 0.458422 0.312500
vt 0.416667 0.688440
vt 0.416667 0.312500
vt 0.422660 0.977706
vt 0.422747 0.022444
vn -0.1167 -0.9118 0.3936
vn -0.0948 0.0903 0.9914
vn 0.0681 -0.9041 0.4218
vn 0.0535 -0.0099 0.9985
vn -0.3163 -0.9059 0.2815
vn 0.4889 -0.7840 -0.3826
vn 0.1097 -0.7987 -0.5917
vn -0.8380 -0.0099 0.5457
vn -0.8974 0.0482 0.4385
vn -0.4091 -0.9071 0.0990
vn -0.0636 -0.0314 0.9975
vn -0.8354 -0.0140 0.5495
vn 0.0230 0.0275 -0.9994
vn -0.0449 0.1034 -0.9936
vn -0.1305 -0.7943 -0.5934
vn 0.8576 0.0338 -0.5132
vn 0.8409 -0.0720 -0.5364
vn 0.0165 -0.0605 -0.9980
vn 0.5665 -0.7927 -0.2253
vn 0.8795 0.0260 -0.4753
vn 0.5791 -0.7944 0.1831
vn 0.8717 0.0528 0.4872
vn 0.4764 -0.7936 0.3785
vn 0.8540 0.0274 0.5196
vn -0.3892 -0.9068 -0.1623
vn 0.8825 -0.0739 0.4645
vn 0.8732 -0.0339 -0.4861
vn -0.8923 -0.0101 -0.4513
vn -0.8273 0.0472 -0.5598
vn -0.2825 -0.9118 -0.2979
vn -0.8950 -0.0319 0.4450
vn -0.8940 -0.0053 -0.4479
vn -0.3992 0.9119 -0.0958
vn -0.3264 0.9082 -0.2620
vn -0.8370 0.0101 -0.5472
vn -0.4019 0.9059 0.1333
vn 0.5758 0.7839 -0.2321
vn 0.5673 0.7986 0.2010
vn -0.2903 0.9071 0.3048
vn -0.0954 0.9109 0.4015
vn 0.0689 -0.0482 0.9965
vn 0.1188 0.9071 0.4037
vn 0.4695 0.7953 -0.3836
vn 0.0885 0.7841 -0.6144
vn -0.0882 0.7926 -0.6033
vn -0.0282 -0.0260 -0.9993
vn 0.8417 -0.1054 0.5296
vn 0.4481 0.7944 0.4100
vn 0.8369 -0.0102 -0.5472
vn 0.3000 -0.9109 -0.2834
vn 0.8974 0.0482 -0.4386
vn 0.4091 -0.9071 -0.0990
vn 0.0583 0.0140 -0.9982
vn 0.0621 -0.0320 -0.9976
vn 0.8349 -0.0053 -0.5503
vn 0.1188 -0.9071 -0.4037
vn -0.0681 -0.9041 -0.4218
vn -0.0535 -0.0099 -0.9985
vn -0.0975 -0.7952 0.5984
vn -0.4878 -0.7841 0.3838
vn 0.2825 0.9119 -0.2978
vn 0.3994 0.9041 -0.1519
vn 0.8915 0.0099 -0.4529
vn 0.0855 0.9059 -0.4147
vn -0.0868 0.7840 0.6147
vn -0.4576 0.7987 0.3908
vn -0.0689 -0.0482 -0.9965
vn -0.1188 0.9071 -0.4038
vn 0.0975 0.7952 0.5984
vn 0.0868 -0.7840 0.6147
vn 0.0156 0.0338 0.9993
vn 0.0441 -0.0720 0.9964
vn -0.0281 0.0260 0.9993
vn -0.8578 0.0528 0.5113
vn -0.5665 -0.7927 0.2253
vn -0.8794 0.0259 0.4753
vn -0.8435 -0.0739 0.5321
vn -0.0156 -0.0338 0.9993
vn -0.8830 -0.1035 0.4579
vn -0.5790 0.7944 0.1836
vn 0.3992 0.9119 0.0958
vn 0.9060 -0.0903 0.4136
vn 0.3264 0.9082 0.2620
vn 0.8370 0.0101 0.5472
vn -0.5673 0.7986 -0.2010
vn 0.8957 0.0315 0.4436
vn -0.8770 -0.0275 -0.4797
vn -0.8416 -0.1053 -0.5297
vn -0.4482 0.7944 -0.4100
vn -0.8726 0.0606 -0.4847
vn 0.3954 -0.9109 0.1180
vn 0.8273 0.0472 0.5597
vn 0.2825 -0.9118 0.2979
vn -0.5762 -0.7841 -0.2305
vn -0.4764 -0.7936 -0.3785
vn -0.8540 0.0275 -0.5196
usemtl initialShadingGroup.001
s 1
f 1/1/1 2/2/2 3/3/3
f 3/3/3 2/2/2 4/4/4
f 5/5/5 1/6/1 6/7/6
f 6/7/6 1/6/1 7/8/7
f 8/9/8 5/5/5 9/10/9
f 9/10/9 5/5/5 10/11/10
f 2/12/2 8/13/8 11/14/11
f 11/14/11 8/13/8 12/15/12
f 13/16/13 7/8/7 14/17/14
f 14/17/14 7/8/7 15/18/15
f 16/19/16 13/20/13 17/21/17
f 17/21/17 13/20/13 18/22/18
f 6/7/6 16/23/16 19/24/19
f 19/24/19 16/23/16 20/25/20
f 21/26/21 22/27/22 23/28/23
f 23/28/23 22/27/22 24/29/24
f 21/26/21 25/30/25 19/24/19
f 19/24/19 25/30/25 10/11/10
f 22/31/22 20/32/20 26/33/26
f 26/33/26 20/32/20 27/34/27
f 28/35/28 25/36/25 29/37/29
f 29/37/29 25/36/25 30/38/30
f 9/39/9 28/35/28 31/40/31
f 31/40/31 28/35/28 32/41/32
f 33/42/33 32/41/32 34/43/34
f 34/43/34 32/41/32 35/44/35
f 36/45/36 33/46/33 37/47/37
f 37/47/37 33/46/33 38/48/38
f 31/40/31 36/49/36 12/15/12
f 12/15/12 36/49/36 39/50/39
f 11/51/11 40/52/40 41/53/41
f 41/53/41 40/52/40 42/54/42
f 39/55/39 43/56/43 40/57/40
f 40/57/40 43/56/43 44/58/44
f 44/58/44 18/59/18 45/60/45
f 45/60/45 18/59/18 46/61/46
f 17/21/17 43/62/43 27/34/27
f 27/34/27 43/62/43 37/63/37
f 26/64/26 38/48/38 47/65/47
f 47/65/47 38/48/38 48/66/48
f 49/67/49 50/68/50 51/69/51
f 51/69/51 50/68/50 52/70/52
f 53/71/53 49/67/49 54/72/54
f 54/72/54 49/67/49 55/73/55
f 56/74/56 53/71/53 57/75/57
f 57/75/57 53/71/53 58/76/58
f 56/77/56 59/78/59 50/79/50
f 50/79/50 59/78/59 60/80/60
f 61/81/61 55/82/55 62/83/62
f 62/83/62 55/82/55 63/84/63
f 64/85/64 61/81/61 65/86/65
f 65/86/65 61/81/61 66/87/66
f 54/72/54 64/88/64 67/89/67
f 67/89/67 64/88/64 68/90/68
f 67/89/67 35/44/35 58/76/58
f 58/76/58 35/44/35 29/37/29
f 68/91/68 69/92/69 34/93/34
f 34/93/34 69/92/69 48/66/48
f 57/94/57 30/95/30 70/96/70
f 70/96/70 30/95/30 23/28/23
f 71/97/71 24/98/24 72/99/72
f 72/99/72 24/98/24 47/100/47
f 70/96/70 71/101/71 59/78/59
f 59/78/59 71/101/71 73/102/73
f 60/103/60 74/104/74 75/105/75
f 75/105/75 74/104/74 76/106/76
f 74/104/74 73/107/73 77/108/77
f 77/108/77 73/107/73 78/109/78
f 77/110/77 66/87/66 79/111/79
f 79/111/79 66/87/66 80/112/80
f 65/86/65 78/113/78 69/92/69
f 69/92/69 78/113/78 72/114/72
f 81/115/81 82/116/82 83/117/83
f 83/117/83 82/116/82 84/118/84
f 62/83/62 81/119/81 80/112/80
f 80/112/80 81/119/81 85/120/85
f 82/116/82 63/121/63 86/122/86
f 86/122/86 63/121/63 51/69/51
f 87/123/87 85/120/85 88/124/88
f 88/124/88 85/120/85 89/125/89
f 79/126/79 87/127/87 76/106/76
f 76/106/76 87/127/87 90/128/90
f 86/122/86 91/129/91 92/130/92
f 92/130/92 91/129/91 93/131/93
f 52/132/52 75/133/75 91/134/91
f 91/134/91 75/133/75 94/135/94
f 94/135/94 90/136/90 95/137/95
f 95/137/95 90/136/90 96/138/96
f 41/53/41 84/118/84 4/4/4
f 4/4/4 84/118/84 92/130/92
f 42/139/42 45/60/45 83/140/83
f 83/140/83 45/60/45 89/125/89
f 3/141/3 93/142/93 15/18/15
f 15/18/15 93/142/93 95/137/95
f 88/143/88 46/144/46 96/145/96
f 96/145/96 46/144/46 14/146/14
f 5/5/5 6/7/6 10/11/10
f 10/11/10 6/7/6 19/24/19
f 9/39/9 31/40/31 8/13/8
f 8/13/8 31/40/31 12/15/12
f 20/32/20 16/19/16 27/34/27
f 27/34/27 16/19/16 17/21/17
f 36/45/36 37/47/37 39/55/39
f 39/55/39 37/47/37 43/56/43
f 53/71/53 54/72/54 58/76/58
f 58/76/58 54/72/54 67/89/67
f 57/94/57 70/96/70 56/77/56
f 56/77/56 70/96/70 59/78/59
f 64/85/64 65/86/65 68/91/68
f 68/91/68 65/86/65 69/92/69
f 73/107/73 71/97/71 78/109/78
f 78/109/78 71/97/71 72/99/72
f 29/37/29 35/44/35 28/35/28
f 28/35/28 35/44/35 32/41/32
f 25/30/25 21/26/21 30/95/30
f 30/95/30 21/26/21 23/28/23
f 34/93/34 48/66/48 33/46/33
f 33/46/33 48/66/48 38/48/38
f 24/98/24 22/31/22 47/100/47
f 47/100/47 22/31/22 26/33/26
f 62/83/62 80/112/80 61/81/61
f 61/81/61 80/112/80 66/87/66
f 51/69/51 63/121/63 49/67/49
f 49/67/49 63/121/63 55/73/55
f 76/106/76 74/104/74 79/126/79
f 79/126/79 74/104/74 77/108/77
f 50/79/50 60/80/60 52/132/52
f 52/132/52 60/80/60 75/133/75
f 2/2/2 11/51/11 4/4/4
f 4/4/4 11/51/11 41/53/41
f 40/57/40 44/58/44 42/139/42
f 42/139/42 44/58/44 45/60/45
f 3/141/3 15/18/15 1/6/1
f 1/6/1 15/18/15 7/8/7
f 13/147/13 14/146/14 18/148/18
f 18/148/18 14/146/14 46/144/46
f 92/130/92 84/118/84 86/122/86
f 86/122/86 84/118/84 82/116/82
f 83/140/83 89/125/89 81/119/81
f 81/119/81 89/125/89 85/120/85
f 91/134/91 94/135/94 93/142/93
f 93/142/93 94/135/94 95/137/95
f 96/145/96 90/128/90 88/143/88
f 88/143/88 90/128/90 87/127/87
f 5/5/5 8/9/8 1/6/1
f 1/6/1 8/9/8 2/149/2
f 13/150/13 16/23/16 7/8/7
f 7/8/7 16/23/16 6/7/6
f 19/24/19 20/25/20 21/26/21
f 21/26/21 20/25/20 22/151/22
f 28/152/28 9/10/9 25/30/25
f 25/30/25 9/10/9 10/11/10
f 36/49/36 31/40/31 33/153/33
f 33/153/33 31/40/31 32/41/32
f 11/14/11 12/15/12 40/154/40
f 40/154/40 12/15/12 39/50/39
f 43/62/43 17/21/17 44/155/44
f 44/155/44 17/21/17 18/22/18
f 26/33/26 27/34/27 38/156/38
f 38/156/38 27/34/27 37/63/37
f 49/67/49 53/71/53 50/157/50
f 50/157/50 53/71/53 56/74/56
f 64/88/64 54/72/54 61/158/61
f 61/158/61 54/72/54 55/73/55
f 35/44/35 67/89/67 34/159/34
f 34/159/34 67/89/67 68/90/68
f 57/75/57 58/76/58 30/160/30
f 30/160/30 58/76/58 29/37/29
f 24/161/24 71/101/71 23/28/23
f 23/28/23 71/101/71 70/96/70
f 59/78/59 73/102/73 60/80/60
f 60/80/60 73/102/73 74/162/74
f 77/163/77 78/113/78 66/87/66
f 66/87/66 78/113/78 65/86/65
f 69/92/69 72/114/72 48/66/48
f 48/66/48 72/114/72 47/164/47
f 62/83/62 63/84/63 81/119/81
f 81/119/81 63/84/63 82/165/82
f 87/166/87 79/111/79 85/120/85
f 85/120/85 79/111/79 80/112/80
f 86/122/86 51/69/51 91/167/91
f 91/167/91 51/69/51 52/70/52
f 75/105/75 76/106/76 94/168/94
f 94/168/94 76/106/76 90/128/90
f 84/118/84 41/53/41 83/169/83
f 83/169/83 41/53/41 42/54/42
f 3/3/3 4/4/4 93/170/93
f 93/170/93 4/4/4 92/130/92
f 45/60/45 46/61/46 89/125/89
f 89/125/89 46/61/46 88/171/88
f 96/172/96 14/17/14 95/137/95
f 95/137/95 14/17/14 15/18/15
