# Blender v2.91.2 OBJ File: ''
# www.blender.org
mtllib SetSquare30.mtl
o SetSquare30
v -0.532032 -0.035166 -0.666673
v -0.532032 -0.035166 0.333327
v -0.532032 -0.013660 -0.666673
v -0.532032 -0.013660 0.333327
v 1.202098 -0.013660 0.334571
v -0.089884 -0.013660 -0.247399
v -0.402692 -0.013660 -0.418316
v -0.402692 -0.035166 -0.418316
v -0.377640 -0.035166 -0.404628
v -0.402692 -0.035166 0.171392
v -0.402692 -0.013660 -0.404311
v 1.202098 -0.035166 0.334571
v -0.064833 -0.035166 -0.233711
v -0.064833 -0.013660 -0.233711
v -0.402692 -0.013660 0.221512
v -0.402692 -0.035166 0.221512
v -0.063847 -0.013660 0.185840
v -0.064810 -0.035166 -0.223910
v -0.088895 -0.035166 0.221512
v -0.377561 -0.013660 0.221512
v 0.056369 -0.035166 0.203273
v 0.056369 -0.035166 -0.184221
v 0.056369 -0.013660 -0.184221
v 0.056369 -0.013660 -0.165769
v -0.063764 -0.035166 0.221512
v -0.063764 -0.013660 0.221512
v 0.773953 -0.013660 0.203788
v 0.090540 -0.035166 -0.165744
v 0.056369 -0.013660 0.221725
v 0.056369 -0.035166 0.221725
v 0.773953 -0.035166 0.222240
v 0.090540 -0.013660 0.221750
v 0.808123 -0.035166 0.222265
v 0.808123 -0.013660 0.222265
v -0.029244 -0.022211 0.110347
v -0.028190 -0.028232 0.104636
v -0.028190 -0.028232 0.110347
v 0.021205 -0.022211 0.115148
v -0.028190 -0.022211 0.115148
v -0.029244 0.035890 0.110347
v 0.021205 -0.028232 0.110347
v 0.022259 -0.022211 0.104636
v 0.022259 -0.022211 0.110347
v 0.021205 0.035890 0.115148
v -0.028190 0.041911 0.103230
v -0.029244 0.035890 0.103192
v -0.028190 0.035890 0.115148
v 0.021205 0.041911 0.110347
v -0.028190 0.041911 0.110347
v 0.022259 0.035890 0.110347
v 0.021205 0.041911 0.103230
v -0.029244 0.035907 0.096386
v -0.029244 0.029830 0.103943
v 0.021205 0.041911 0.096439
v -0.028190 0.041911 0.096439
v -0.028190 0.041911 -0.100920
v -0.029244 0.035907 -0.100874
v 0.022259 0.035907 0.096419
v 0.022259 0.035890 0.103226
v 0.022259 0.029845 0.104010
v 0.021205 0.041911 -0.100920
v -0.029244 0.035890 -0.107680
v -0.029244 0.029833 -0.108439
v 0.021205 0.041911 -0.107711
v -0.028190 0.041911 -0.107711
v -0.029244 0.035889 -0.114827
v 0.022259 0.035890 -0.107712
v 0.022259 0.035907 -0.100906
v 0.022259 0.029847 -0.108502
v 0.021205 0.041911 -0.114827
v -0.028190 0.035889 -0.119629
v -0.029244 -0.022211 -0.114827
v -0.028190 0.041911 -0.114827
v 0.021205 0.035889 -0.119629
v 0.022259 0.035889 -0.114827
v 0.021205 -0.022211 -0.119629
v -0.028190 -0.028232 -0.109117
v -0.029244 -0.022211 -0.109111
v -0.028190 -0.022211 -0.119629
v 0.021205 -0.028232 -0.114827
v -0.028190 -0.028232 -0.114827
v 0.022259 -0.022211 -0.114827
v 0.021205 -0.028232 -0.109117
v -0.028190 0.023824 -0.104262
v 0.021205 -0.022211 -0.104316
v -0.028190 -0.022211 -0.104309
v 0.022259 -0.022211 -0.109117
v 0.021205 0.023825 -0.104317
v 0.021225 0.029847 -0.099604
v -0.028230 0.029847 -0.099633
v -0.028210 0.029847 0.095049
v 0.021244 0.029847 0.095201
v -0.028191 0.023830 0.099768
v 0.021205 0.023826 0.099825
v -0.029244 -0.022211 0.104629
v 0.021205 -0.022211 0.099834
v 0.021205 -0.028232 0.104636
v -0.028190 -0.022211 0.099827
vt 0.882042 0.420039
vt 0.882042 0.001992
vt 0.891032 0.420039
vt 0.891032 0.001992
vt 0.810682 0.871771
vt 0.801692 0.861298
vt 0.810682 0.741003
vt 0.801692 0.730530
vt 0.825191 0.872218
vt 0.816201 0.861712
vt 0.825191 0.741036
vt 0.830710 0.730530
vt 0.839700 0.738244
vt 0.830710 0.892521
vt 0.816201 0.730530
vt 0.839700 0.900234
vt 0.801692 0.871771
vt 0.810682 0.730530
vt 0.816201 0.872218
vt 0.839700 0.730530
vt 0.825191 0.730530
vt 0.830710 0.900234
vt 0.875254 0.001992
vt 0.875254 0.420559
vt 0.866264 0.001992
vt 0.859728 0.730530
vt 0.868718 0.736385
vt 0.859728 0.977056
vt 0.866264 0.420559
vt 0.868718 0.998008
vt 0.854209 0.920834
vt 0.845219 0.916737
vt 0.854209 0.745443
vt 0.845219 0.730530
vt 0.897736 0.737898
vt 0.888746 0.723613
vt 0.897736 0.437914
vt 0.888746 0.423629
vt 0.868718 0.730530
vt 0.859728 0.998008
vt 0.845219 0.920835
vt 0.854209 0.730530
vt 0.888746 0.737898
vt 0.897736 0.423629
vt 0.852676 0.690954
vt 0.852676 0.477264
vt 0.855326 0.690954
vt 0.855326 0.477264
vt 0.883227 0.738418
vt 0.874237 0.724133
vt 0.883227 0.438434
vt 0.874237 0.424149
vt 0.874237 0.738418
vt 0.883227 0.424149
vt 0.084027 0.978503
vt 0.146123 0.892717
vt 0.146123 0.906674
vt 0.826172 0.421347
vt 0.826172 0.385570
vt 0.838921 0.436094
vt 0.779913 0.369009
vt 0.774271 0.382827
vt 0.724908 0.436094
vt 0.371447 0.651734
vt 0.155966 0.253224
vt 0.083336 0.015453
vt 0.165934 0.718496
vt 0.146123 0.718450
vt 0.146005 0.651734
vt 0.826172 0.382705
vt 0.826197 0.369009
vt 0.839062 0.238381
vt 0.493674 0.906674
vt 0.501452 0.906674
vt 0.639377 0.978503
vt 0.753224 0.421347
vt 0.820458 0.421347
vt 0.826258 0.283299
vt 0.782020 0.365113
vt 0.775388 0.382824
vt 0.754784 0.418491
vt 0.406533 0.732956
vt 0.398932 0.719043
vt 0.145705 0.234247
vt 0.145991 0.632757
vt 0.361200 0.651734
vt 0.824093 0.369009
vt 0.826255 0.287195
vt 0.375000 0.984322
vt 0.380113 0.965678
vt 0.380113 0.984322
vt 0.380113 -0.000000
vt 0.619887 0.021462
vt 0.380113 0.021462
vt 0.352556 0.204722
vt 0.359322 0.021462
vt 0.619887 0.984322
vt 0.625000 0.965675
vt 0.625000 0.984322
vt 0.640678 0.021462
vt 0.619887 0.228538
vt 0.375000 0.265678
vt 0.380113 0.288914
vt 0.375000 0.289038
vt 0.380113 0.228538
vt 0.619887 0.265678
vt 0.380113 0.265678
vt 0.625000 0.265678
vt 0.619887 0.288914
vt 0.375000 0.302523
vt 0.380113 0.447505
vt 0.000000 0.000000
vt 0.625000 0.302498
vt 0.619887 0.447505
vt 0.619887 0.302498
vt 0.380113 0.461086
vt 0.375000 0.484322
vt 0.375000 0.460987
vt 0.625000 0.461091
vt 0.619887 0.484322
vt 0.619887 0.461086
vt 0.380113 0.521462
vt 0.375000 0.728538
vt 0.375000 0.521462
vt 0.380113 0.484322
vt 0.619887 0.521463
vt 0.625000 0.521463
vt 0.619887 0.728538
vt 0.375000 0.765678
vt 0.380113 0.784322
vt 0.375000 0.784343
vt 0.380113 0.728538
vt 0.619887 0.765678
vt 0.380113 0.765678
vt 0.625000 0.765678
vt 0.619887 0.784321
vt 0.375000 0.805177
vt 0.380114 0.844815
vt 0.375000 0.849983
vt 0.619887 0.805184
vt 0.380113 0.805184
vt 0.625000 0.805185
vt 0.619887 0.844816
vt 0.619982 0.851155
vt 0.379922 0.851133
vt 0.380114 0.905180
vt 0.620077 0.898868
vt 0.619888 0.905183
vt 0.375002 0.944825
vt 0.375001 0.900022
vt 0.625000 0.944817
vt 0.619887 0.944817
vt 0.619887 0.965678
vt 0.380113 0.302495
vt 0.375000 0.300000
vt 0.625000 0.288929
vt 0.625000 0.300000
vt 0.375000 0.450000
vt 0.000000 0.000000
vt 0.625000 0.450000
vt 0.375000 0.850000
vt 0.625000 0.850000
vt 0.624999 0.850000
vt 0.380016 0.898846
vt 0.375000 0.899170
vt 0.625000 0.900003
vt 0.625000 0.899162
vt 0.375000 0.965652
vt 0.619887 0.000000
vt 0.647540 0.204595
vt 0.625000 0.484322
vt 0.625000 0.728538
vt 0.625000 0.784321
vt 0.380113 0.944816
vt 0.323608 0.185052
vt 0.000000 0.000000
vt 0.321790 0.148425
vt 0.000000 0.000000
vt 0.676392 0.185052
vt 0.678104 0.148602
vt 0.176392 0.185052
vt 0.178185 0.148466
vt 0.836091 0.228538
vt 0.838671 0.207003
vt 0.375000 0.850832
vt 0.856729 0.012429
vt 0.859322 0.228538
vt 0.147466 0.204693
vt 0.625000 0.850840
vt 0.838086 0.012429
vt 0.659325 0.021462
vt 0.140678 0.021462
vt 0.159343 0.021462
vt 0.340652 0.021462
vn -1.0000 0.0000 0.0000
vn -0.4795 -0.0000 0.8776
vn -0.4795 -0.0000 0.8775
vn 0.0000 0.0000 -1.0000
vn 1.0000 0.0000 0.0000
vn 0.5000 0.0000 -0.8660
vn -1.0000 0.0000 0.0023
vn -0.4756 0.0000 0.8796
vn -0.4757 0.0000 0.8796
vn -0.0007 0.0000 1.0000
vn 0.0007 0.0000 -1.0000
vn 0.0000 1.0000 0.0000
vn -0.0000 -1.0000 -0.0000
vn -0.9850 -0.1724 -0.0000
vn 0.0000 -0.6234 0.7819
vn -0.9767 -0.0000 0.2144
vn 0.9850 -0.1724 -0.0000
vn 0.9767 -0.0000 0.2144
vn -0.9850 0.1724 0.0000
vn -0.9850 0.1725 0.0001
vn 0.0000 0.6234 0.7819
vn 0.9850 0.1724 0.0000
vn -0.9849 0.1729 0.0002
vn -0.9850 0.1728 -0.0001
vn -0.9849 0.1729 -0.0002
vn 0.9849 0.1729 0.0002
vn 0.9849 0.1729 0.0000
vn 0.9850 0.1723 0.0004
vn -0.9850 0.1725 -0.0001
vn 0.9850 0.1724 -0.0002
vn 0.9850 0.1725 -0.0001
vn -0.9767 0.0000 -0.2144
vn 0.0000 0.6235 -0.7819
vn 0.9768 0.0000 -0.2144
vn 0.0000 -0.6235 -0.7818
vn -0.9707 -0.0031 0.2405
vn 0.0000 -0.6237 0.7817
vn 0.0001 -0.6238 0.7816
vn 0.0001 -0.6240 0.7814
vn 0.0005 -0.6145 0.7889
vn -0.0001 -0.6112 0.7915
vn -0.0005 -0.6094 0.7929
vn 0.0013 -0.6112 -0.7915
vn 0.0020 -0.6150 -0.7885
vn 0.0009 -0.6091 -0.7931
vn -0.9707 -0.0032 -0.2403
vn 0.0000 -0.6237 -0.7817
vn 0.0001 -0.6239 -0.7815
vn -0.9850 0.1728 0.0001
vn 0.9851 0.1722 0.0002
vn 0.9850 0.1728 -0.0001
vn -0.9834 -0.1413 0.1135
vn 0.9831 -0.1432 0.1142
vn -0.9831 -0.1425 -0.1146
vn 0.9834 -0.1419 -0.1133
vn 0.0009 -0.6163 0.7875
vn 0.0024 -0.6171 -0.7869
vn 0.0001 -0.6241 -0.7814
vn -0.9859 -0.1673 0.0000
vn -0.9861 -0.1659 0.0001
vn -0.9858 -0.1682 -0.0000
vn 0.9861 -0.1661 -0.0001
vn 0.9859 -0.1673 -0.0000
vn 0.9863 -0.1652 -0.0001
vn 0.0000 -0.0000 1.0000
vn 0.0006 -0.0005 1.0000
vn 0.0001 -0.0010 1.0000
vn 0.0006 -0.0007 -1.0000
vn 0.0007 -0.0008 -1.0000
vn 0.0012 -0.0013 -1.0000
vn -0.9629 -0.1683 0.2111
vn 0.9628 -0.1685 0.2114
vn -0.9628 0.1685 0.2114
vn 0.9628 0.1685 0.2114
vn -0.9628 0.1685 -0.2113
vn 0.9628 0.1685 -0.2113
vn -0.9629 -0.1682 -0.2110
vn 0.9628 -0.1685 -0.2113
vn -0.9627 -0.1688 0.2113
vn -0.9627 -0.1688 -0.2113
vn -0.9863 -0.1650 0.0001
vn 0.9858 -0.1682 -0.0000
vn 0.0011 0.0000 1.0000
vn 0.0001 -0.0002 -1.0000
vn -0.9890 -0.0942 0.1140
vn 0.9890 -0.0932 0.1149
vn -0.9889 -0.0934 -0.1152
vn 0.9890 -0.0939 -0.1140
vn -0.9767 -0.0002 0.2144
vn 0.9707 -0.0028 0.2404
vn -0.9767 -0.0003 -0.2144
vn 0.9707 -0.0029 -0.2403
g SetSquare30_SetSquare30_lambert3SG
usemtl lambert3SG
s 1
f 1/1/1 2/2/1 3/3/1
f 3/3/1 2/2/1 4/4/1
f 7/5/2 9/6/3 6/7/3
f 13/8/3 6/7/3 9/6/3
f 16/9/4 20/10/4 19/11/4
f 22/12/5 24/13/5 21/14/5
f 26/15/4 19/11/4 20/10/4
f 29/16/5 21/14/5 24/13/5
f 7/5/2 8/17/2 9/6/3
f 13/8/3 14/18/3 6/7/3
f 16/9/4 15/19/4 20/10/4
f 22/12/5 23/20/5 24/13/5
f 26/15/4 25/21/4 19/11/4
f 29/16/5 30/22/5 21/14/5
s 2
f 3/23/6 5/24/6 1/25/6
f 8/26/5 11/27/5 10/28/5
f 1/25/6 5/24/6 12/29/6
f 15/30/5 10/28/5 11/27/5
f 14/31/7 18/32/7 17/33/7
f 25/34/7 17/33/7 18/32/7
f 23/35/8 28/36/8 27/37/8
f 33/38/8 27/37/8 28/36/8
f 8/26/5 7/39/5 11/27/5
f 15/30/5 16/40/5 10/28/5
f 14/31/7 13/41/7 18/32/7
f 25/34/7 26/42/7 17/33/7
f 23/35/8 22/43/8 28/36/8
f 33/38/8 34/44/9 27/37/8
s 4
f 2/45/10 12/46/10 4/47/10
f 4/47/10 12/46/10 5/48/10
f 30/49/11 32/50/11 31/51/11
f 34/52/11 31/51/11 32/50/11
f 30/49/11 29/53/11 32/50/11
f 34/52/11 33/54/11 31/51/11
s 8
f 4/55/12 20/56/12 15/57/12
f 16/58/13 19/59/13 2/60/13
f 22/61/13 13/62/13 1/63/13
f 23/64/12 27/65/12 5/66/12
f 17/67/12 26/68/12 29/69/12
f 25/70/13 30/71/13 12/72/13
f 4/55/12 5/66/12 20/56/12
f 15/57/12 11/73/12 4/55/12
f 11/73/12 7/74/12 3/75/12
f 4/55/12 11/73/12 3/75/12
f 2/60/13 1/63/13 8/76/13
f 8/76/13 10/77/13 2/60/13
f 10/77/13 16/58/13 2/60/13
f 19/59/13 12/72/13 2/60/13
f 12/72/13 33/78/13 28/79/13
f 22/61/13 18/80/13 13/62/13
f 12/72/13 28/79/13 1/63/13
f 28/79/13 22/61/13 1/63/13
f 8/76/13 1/63/13 9/81/13
f 9/81/13 1/63/13 13/62/13
f 5/66/12 3/75/12 23/64/12
f 3/75/12 7/74/12 6/82/12
f 23/64/12 3/75/12 6/82/12
f 6/82/12 14/83/12 23/64/12
f 34/84/12 32/85/12 5/66/12
f 27/65/12 34/84/12 5/66/12
f 20/56/12 5/66/12 26/68/12
f 5/66/12 32/85/12 29/69/12
f 29/69/12 24/86/12 17/67/12
f 24/86/12 23/64/12 14/83/12
f 5/66/12 29/69/12 26/68/12
f 24/86/12 14/83/12 17/67/12
f 12/72/13 19/59/13 25/70/13
f 25/70/13 18/80/13 22/61/13
f 22/61/13 21/87/13 25/70/13
f 21/87/13 30/71/13 25/70/13
f 31/88/13 33/78/13 12/72/13
f 30/71/13 31/88/13 12/72/13
g SetSquare30_SetSquare30_pasted__lambert5SG.003
usemtl pasted__lambert5SG.003
s 1
f 35/89/14 36/90/14 37/91/14
f 37/92/15 38/93/15 39/94/15
f 39/94/16 40/95/16 35/96/16
f 41/97/17 42/98/17 43/99/17
f 43/100/18 44/101/18 38/93/18
f 40/102/19 45/103/19 46/104/20
f 47/105/21 48/106/21 49/107/21
f 50/108/22 51/109/22 48/106/22
f 52/110/23 56/111/24 57/112/25
f 58/113/26 61/114/27 54/115/28
f 65/116/19 66/117/19 62/118/29
f 67/119/30 70/120/22 64/121/31
f 71/122/32 72/123/32 66/124/32
f 73/125/33 74/126/33 71/122/33
f 75/127/34 76/128/34 74/126/34
f 72/129/14 77/130/14 78/131/14
f 79/132/35 80/133/35 81/134/35
f 82/135/17 83/136/17 80/133/17
f 78/137/36 84/138/36 63/139/36
f 77/130/37 85/140/38 86/141/39
f 87/142/18 88/143/18 85/140/18
f 84/138/40 89/144/41 90/145/42
f 93/146/43 92/147/44 94/148/45
f 93/146/46 95/149/46 53/150/46
f 94/148/34 42/151/34 96/152/34
f 36/90/47 96/152/48 97/153/35
f 46/104/20 55/154/49 52/155/23
f 54/115/28 59/156/50 58/157/26
f 56/111/24 62/158/29 57/112/25
f 64/121/31 68/159/51 67/160/30
f 63/139/52 90/145/52 57/161/52
f 89/144/53 69/162/53 68/163/53
f 91/164/54 53/150/54 52/165/54
f 60/166/55 92/147/55 58/167/55
f 35/89/14 95/168/14 36/90/14
f 37/92/15 41/169/15 38/93/15
f 39/94/16 47/105/16 40/95/16
f 41/97/17 97/153/17 42/98/17
f 43/100/18 50/170/18 44/101/18
f 40/102/19 49/107/19 45/103/19
f 47/105/21 44/101/21 48/106/21
f 50/108/22 59/156/50 51/109/22
f 52/110/23 55/154/49 56/111/24
f 58/113/26 68/159/51 61/114/27
f 65/116/19 73/125/19 66/117/19
f 67/119/30 75/171/22 70/120/22
f 71/122/32 79/132/32 72/123/32
f 73/125/33 70/120/33 74/126/33
f 75/127/34 82/172/34 76/128/34
f 72/129/14 81/134/14 77/130/14
f 79/132/35 76/128/35 80/133/35
f 82/135/17 87/173/17 83/136/17
f 77/130/37 83/136/15 85/140/38
f 84/138/40 88/143/56 89/144/41
f 93/146/43 91/164/57 92/147/44
f 36/90/47 98/174/58 96/152/48
f 46/104/20 45/103/19 55/154/49
f 54/115/28 51/109/22 59/156/50
f 56/111/24 65/116/19 62/158/29
f 64/121/31 61/114/27 68/159/51
s 2
f 46/175/1 52/176/1 53/177/1
f 45/103/12 54/115/12 55/154/12
f 58/178/5 59/179/5 60/180/5
f 57/112/1 62/181/1 63/182/1
f 56/111/12 64/121/12 65/116/12
f 67/183/5 68/159/5 69/184/5
f 57/185/59 91/164/60 52/165/61
f 89/144/62 58/167/63 92/147/64
f 38/93/65 47/105/65 39/94/65
f 48/106/12 45/103/12 49/107/12
f 61/114/12 55/154/12 54/115/12
f 64/121/12 73/125/12 65/116/12
f 74/126/4 79/132/4 71/122/4
f 80/133/13 77/130/13 81/134/13
f 85/140/66 84/138/66 86/141/67
f 94/148/68 98/174/69 93/146/70
f 97/153/13 37/91/13 36/90/13
f 82/186/5 75/187/5 69/184/5
f 60/180/5 59/179/5 50/170/5
f 63/182/1 62/181/1 66/188/1
f 35/96/1 40/95/1 53/177/1
f 37/92/71 39/94/71 35/96/71
f 43/100/72 38/93/72 41/169/72
f 40/95/73 47/105/73 49/107/73
f 48/106/74 44/101/74 50/170/74
f 66/117/75 73/125/75 71/122/75
f 74/126/76 70/120/76 75/171/76
f 72/123/77 79/132/77 81/134/77
f 80/133/78 76/128/78 82/172/78
f 78/131/79 77/130/79 86/141/79
f 85/140/72 83/136/72 87/173/72
f 95/149/80 98/174/80 36/90/80
f 97/153/78 96/152/78 42/151/78
f 45/103/12 51/109/12 54/115/12
f 56/111/12 61/114/12 64/121/12
f 57/185/59 90/145/81 91/164/60
f 89/144/62 68/189/82 58/167/63
f 38/93/65 44/101/65 47/105/65
f 48/106/12 51/109/12 45/103/12
f 61/114/12 56/111/12 55/154/12
f 64/121/12 70/120/12 73/125/12
f 74/126/4 76/128/4 79/132/4
f 80/133/13 83/136/13 77/130/13
f 85/140/66 88/143/83 84/138/66
f 94/148/68 96/152/84 98/174/69
f 97/153/13 41/97/13 37/91/13
f 69/184/5 87/190/5 82/186/5
f 75/187/5 67/183/5 69/184/5
f 50/170/5 43/100/5 60/180/5
f 43/100/5 42/191/5 60/180/5
f 66/188/1 72/192/1 63/182/1
f 72/192/1 78/193/1 63/182/1
f 53/177/1 95/194/1 35/96/1
f 40/95/1 46/175/1 53/177/1
f 63/139/85 84/138/85 90/145/85
f 89/144/86 88/143/86 69/162/86
f 91/164/87 93/146/87 53/150/87
f 60/166/88 94/148/88 92/147/88
s 4
f 89/144/13 91/164/13 90/145/13
f 78/137/89 86/141/89 84/138/89
f 87/142/90 69/162/90 88/143/90
f 93/146/91 98/174/91 95/149/91
f 94/148/92 60/166/92 42/151/92
f 89/144/13 92/147/13 91/164/13
